<svg xmlns="http://www.w3.org/2000/svg" xmlns:xlink="http://www.w3.org/1999/xlink" width="149.262" height="105.508" viewBox="0 0 149.262 105.508"><defs><filter id="a" x="43.754" y="0" width="61.754" height="105.508" filterUnits="userSpaceOnUse"><feOffset input="SourceAlpha"/><feGaussianBlur stdDeviation="3" result="b"/><feFlood flood-color="#00fff2"/><feComposite operator="in" in2="b"/><feComposite in="SourceGraphic"/></filter><filter id="c" x="0" y="0" width="61.754" height="105.508" filterUnits="userSpaceOnUse"><feOffset input="SourceAlpha"/><feGaussianBlur stdDeviation="3" result="d"/><feFlood flood-color="#00fff2"/><feComposite operator="in" in2="d"/><feComposite in="SourceGraphic"/></filter><filter id="e" x="87.508" y="0" width="61.754" height="105.508" filterUnits="userSpaceOnUse"><feOffset input="SourceAlpha"/><feGaussianBlur stdDeviation="3" result="f"/><feFlood flood-color="#00fff2"/><feComposite operator="in" in2="f"/><feComposite in="SourceGraphic"/></filter></defs><g transform="translate(148.262 104.508) rotate(180)"><g transform="matrix(-1, 0, 0, -1, 148.26, 104.51)" filter="url(#a)"><path d="M13.317,17.029A5.469,5.469,0,1,1,21.622,9.91L54.437,48.195a5.469,5.469,0,0,1,0,7.119L21.622,93.6a5.469,5.469,0,1,1-8.305-7.119L43.081,51.754Z" transform="translate(108.51 104.51) rotate(180)" fill="#0ea9a1"/></g><g transform="matrix(-1, 0, 0, -1, 148.26, 104.51)" filter="url(#c)"><path d="M13.317,17.029A5.469,5.469,0,1,1,21.622,9.91L54.437,48.195a5.469,5.469,0,0,1,0,7.119L21.622,93.6a5.469,5.469,0,1,1-8.305-7.119L43.081,51.754Z" transform="translate(64.75 104.51) rotate(180)" fill="#0ea9a1"/></g><g transform="matrix(-1, 0, 0, -1, 148.26, 104.51)" filter="url(#e)"><path d="M9.317,17.029A5.469,5.469,0,1,1,17.622,9.91L50.437,48.195a5.469,5.469,0,0,1,0,7.119L17.622,93.6a5.469,5.469,0,1,1-8.305-7.119L39.081,51.754Z" transform="translate(148.26 104.51) rotate(180)" fill="#0ea9a1"/></g></g></svg>